<svg width="50" height="51" viewBox="0 0 50 51" fill="none" xmlns="http://www.w3.org/2000/svg">
<path d="M20.696 24.3172V49H0V28.1567C0 23.1592 1.15995 18.2836 3.47985 13.5299C5.79976 8.77613 9.03541 4.26617 13.1868 0L20.3297 5.85075C18.1319 9.26368 16.4835 12.6157 15.3846 15.9067C14.2857 19.1978 13.6752 22.0013 13.5531 24.3172H20.696ZM50 24.3172V49H29.304V28.1567C29.304 23.1592 30.464 18.2836 32.7839 13.5299C35.1038 8.77613 38.3394 4.26617 42.4908 0L49.6337 5.85075C47.4359 9.26368 45.7875 12.6157 44.6886 15.9067C43.5897 19.1978 42.9792 22.0013 42.8571 24.3172H50Z" fill="#A4A4A4"/>
</svg>
