<svg width="50" height="50" viewBox="0 0 50 50" fill="none" xmlns="http://www.w3.org/2000/svg">
<g clip-path="url(#clip0_177_425)">
<rect width="50" height="50" rx="25" fill="#F3D9FF"/>
<path d="M20.3335 25.0001C21.5712 25.0001 22.7582 24.5084 23.6333 23.6332C24.5085 22.7581 25.0002 21.5711 25.0002 20.3334C25.0002 19.0957 24.5085 17.9088 23.6333 17.0336C22.7582 16.1584 21.5712 15.6667 20.3335 15.6667C19.0958 15.6667 17.9088 16.1584 17.0337 17.0336C16.1585 17.9088 15.6668 19.0957 15.6668 20.3334C15.6668 21.5711 16.1585 22.7581 17.0337 23.6332C17.9088 24.5084 19.0958 25.0001 20.3335 25.0001ZM30.8335 25.0001C31.7618 25.0001 32.652 24.6313 33.3084 23.975C33.9647 23.3186 34.3335 22.4283 34.3335 21.5001C34.3335 20.5718 33.9647 19.6816 33.3084 19.0252C32.652 18.3688 31.7618 18.0001 30.8335 18.0001C29.9052 18.0001 29.015 18.3688 28.3586 19.0252C27.7022 19.6816 27.3335 20.5718 27.3335 21.5001C27.3335 22.4283 27.7022 23.3186 28.3586 23.975C29.015 24.6313 29.9052 25.0001 30.8335 25.0001ZM15.9585 27.3334C15.2623 27.3334 14.5946 27.61 14.1023 28.1023C13.6101 28.5945 13.3335 29.2622 13.3335 29.9584V30.2501C13.3335 30.2501 13.3335 35.5001 20.3335 35.5001C27.3335 35.5001 27.3335 30.2501 27.3335 30.2501V29.9584C27.3335 29.2622 27.0569 28.5945 26.5647 28.1023C26.0724 27.61 25.4047 27.3334 24.7085 27.3334H15.9585ZM30.8335 33.7501C29.4673 33.7501 28.4208 33.5389 27.6193 33.2157C28.0859 32.4285 28.3787 31.5506 28.478 30.6409C28.4893 30.5304 28.4967 30.4195 28.5002 30.3084V29.9584C28.5017 28.981 28.1245 28.041 27.4478 27.3357L27.5668 27.3334H34.1002C34.7809 27.3334 35.4337 27.6038 35.9151 28.0852C36.3964 28.5665 36.6668 29.2194 36.6668 29.9001C36.6668 29.9001 36.6668 33.7501 30.8335 33.7501Z" fill="#8111B5"/>
</g>
<defs>
<clipPath id="clip0_177_425">
<rect width="50" height="50" fill="white"/>
</clipPath>
</defs>
</svg>
