<svg width="782" height="131" viewBox="0 0 782 131" fill="none" xmlns="http://www.w3.org/2000/svg">
<g clip-path="url(#clip0_164_12)">
<path d="M282.515 77.2246C282.515 81.1877 286.588 81.5179 286.588 83.3893V83.7196C286.588 84.4902 286.038 84.9305 284.937 84.9305H275.69C274.589 84.9305 273.928 84.1599 273.818 83.1692L273.598 77.665C269.855 83.1692 263.36 86.0314 256.865 86.0314C243.435 86.0314 231.436 75.133 231.436 58.4003C231.436 42.328 242.555 30.9893 257.196 30.9893C263.911 30.9893 269.415 33.8515 273.158 38.1448V14.1465C273.158 9.52295 268.534 9.63304 268.534 7.65153V7.43136C268.534 6.55069 269.195 6.00027 270.186 5.55993L279.102 2.58766C281.414 1.70699 282.515 2.36749 282.515 4.23892V77.2246ZM259.177 82.3986C265.452 82.3986 273.158 77.1145 273.158 66.5465H273.268L273.158 60.9322V49.9238C273.158 42.8784 266.113 34.512 257.086 34.512C247.618 34.512 241.013 42.7683 240.903 55.0977C240.683 70.1793 248.169 82.2885 259.177 82.3986Z" fill="#6C3A0C"/>
<path d="M197.813 86.0313C180.31 86.0313 169.081 72.7111 169.081 57.7397C169.081 42.438 180.75 30.9893 195.831 30.9893C212.344 30.9893 223.793 43.5388 223.793 58.9506C223.793 74.1422 213.335 86.0313 197.813 86.0313ZM199.134 82.3985C207.721 82.3985 214.105 74.5825 214.105 62.2531C214.105 46.8414 205.959 34.622 194.731 34.622C185.373 34.622 178.879 42.3279 178.879 54.6573C178.879 68.7481 187.025 82.3985 199.134 82.3985Z" fill="#6C3A0C"/>
<path d="M135.568 86.0313C118.065 86.0313 106.836 72.7111 106.836 57.7397C106.836 42.438 118.505 30.9893 133.586 30.9893C150.099 30.9893 161.548 43.5388 161.548 58.9506C161.548 74.1422 151.09 86.0313 135.568 86.0313ZM136.889 82.3985C145.475 82.3985 151.86 74.5825 151.86 62.2531C151.86 46.8414 143.714 34.622 132.486 34.622C123.128 34.622 116.633 42.3279 116.633 54.6573C116.633 68.7481 124.78 82.3985 136.889 82.3985Z" fill="#6C3A0C"/>
<path d="M105.882 6.77075C107.203 6.77075 107.864 7.32117 107.864 7.98167V8.31193C107.864 10.4035 104.121 10.1834 102.58 14.4766L80.8933 82.0682C80.1227 84.2699 78.2512 84.9304 76.6 84.9304C74.9487 84.9304 73.5176 84.0497 72.8571 82.1783L56.6748 35.0624L39.7218 82.0682C39.0613 84.1598 37.4101 84.9304 35.8689 84.9304C33.9975 84.9304 32.8966 84.1598 32.126 82.1783L5.81595 14.5867C3.94452 9.96319 0.20166 10.5136 0.20166 8.20185V7.98167C0.20166 7.21109 0.972249 6.77075 2.18317 6.77075H17.705C19.026 6.77075 19.7966 7.32117 19.7966 8.09176V8.31193C19.7966 10.5136 14.7328 10.4035 16.2739 14.5867L37.7403 72.4909L53.9227 27.1363L49.6294 14.4766C48.1983 10.2934 44.1252 10.1834 44.1252 8.20185V7.98167C44.1252 7.21109 44.7857 6.77075 45.8865 6.77075H61.6286C62.8395 6.77075 63.5 7.21109 63.5 7.98167V8.20185C63.5 10.1834 58.2159 9.96319 59.537 14.4766L78.6916 72.3808L96.6353 14.4766C97.9563 10.5136 92.8924 10.5136 92.8924 8.42201V8.20185C92.8924 7.21109 93.663 6.77075 94.8739 6.77075H105.882Z" fill="#6C3A0C"/>
<path d="M380.322 80.4714C381.533 80.4714 382.193 80.9117 382.193 81.9025V82.4529C382.193 84.4344 380.049 82.4529 375.426 82.4529C370.032 82.4529 368.213 79.3706 364.029 74.8571L360.727 73.2059C354.342 78.7101 346.143 82.4529 336.236 82.4529C319.723 82.4529 309.706 75.1874 309.706 61.8672C309.706 51.7395 318.292 44.9143 329.08 39.3C323.466 33.0252 318.953 27.521 318.953 19.8151C318.953 9.24704 327.099 2.20166 339.208 2.20166C350.327 2.20166 357.812 8.8067 357.812 18.2739C357.812 27.8512 349.336 34.4563 341.41 38.3092L362.656 61.4269C366.399 53.9412 368.38 44.6941 368.38 34.7865C368.38 31.484 375.756 31.2638 375.756 34.8966C375.756 46.8958 372.784 57.9042 367.169 66.2706L370.472 69.9033C374.765 74.5269 375.478 80.4714 377.57 80.4714H380.322ZM338.217 5.83443C332.603 5.83443 328.86 10.5681 328.86 17.5033C328.86 24.3286 332.713 28.9521 337.887 34.5664C345.703 30.0529 348.345 24.1084 348.345 18.1638C348.345 10.8983 344.272 5.83443 338.217 5.83443ZM337.447 79.0403C345.373 79.0403 351.978 75.6277 357.152 69.7933L332.383 42.8227C323.906 47.9966 319.613 54.4916 319.613 62.7479C319.613 72.105 326.218 79.0403 337.447 79.0403Z" fill="#FF9B26"/>
<path d="M780.878 29.9424C781.759 29.9424 782.419 30.3827 782.419 31.2634V31.5936C782.419 33.7953 779.557 33.6852 777.465 38.4188L756.659 84.3239C752.366 94.0113 747.302 106.121 736.514 106.121C728.258 106.121 722.974 100.616 722.974 96.3231C722.974 93.7911 724.515 91.9197 727.157 91.9197C732.881 91.9197 731.34 102.268 738.165 102.268C742.899 102.268 747.743 94.5617 751.595 84.8743L730.459 38.3088C728.258 33.6852 725.175 33.7953 725.175 31.5936V31.2634C725.175 30.3827 725.946 29.9424 726.827 29.9424H741.137C742.018 29.9424 742.679 30.4928 742.679 31.2634V31.5936C742.679 33.7953 738.716 33.6852 740.807 38.4188L756.659 75.7373L772.401 39.2995C774.823 33.6852 768.218 33.7953 768.218 31.5936V31.2634C768.218 30.4928 768.879 29.9424 769.869 29.9424H780.878Z" fill="#6C3A0C"/>
<path d="M700.513 83.7735C685.872 83.7735 678.166 76.3979 678.166 71.2239C678.166 68.5819 679.927 67.1508 682.459 67.1508C689.284 67.1508 685.762 80.581 700.513 80.581C707.558 80.581 713.063 77.1684 713.063 70.8936C713.063 54.7113 679.377 65.6096 679.377 43.9231C679.377 35.4466 687.963 28.8416 700.073 28.8416C713.723 28.8416 721.539 35.8869 721.539 41.8315C721.539 44.0331 719.778 45.6844 717.576 45.6844C711.301 45.6844 714.053 32.2542 700.513 32.2542C694.128 32.2542 689.174 36.3273 689.174 41.8315C689.174 57.6836 722.75 46.8953 722.75 68.9121C722.75 77.1684 714.163 83.7735 700.513 83.7735Z" fill="#6C3A0C"/>
<path d="M668.105 74.9669C668.325 78.9299 672.178 79.1501 672.178 81.1316V81.5719C672.178 82.4526 671.187 82.8929 669.976 82.8929H656.766C655.335 82.8929 654.565 82.4526 654.565 81.5719V81.1316C654.565 79.1501 658.528 78.9299 658.418 75.0769L657.317 53.6106C656.546 38.7492 651.592 33.1349 643.556 33.1349C636.621 33.1349 630.787 39.2996 630.456 47.666C630.787 49.3173 630.897 51.1887 630.897 53.0601V75.0769C630.897 78.9299 634.75 79.1501 634.75 81.1316V81.5719C634.75 82.4526 633.979 82.8929 632.658 82.8929H619.668C618.237 82.8929 617.356 82.4526 617.356 81.5719V81.1316C617.356 79.1501 621.209 78.9299 621.209 75.0769V52.5097C621.209 40.2904 615.155 33.1349 607.559 33.1349C599.743 33.1349 594.239 39.74 593.908 47.9963L594.018 75.0769C594.018 78.9299 598.312 79.1501 598.312 81.1316V81.5719C598.312 82.4526 597.431 82.8929 596.11 82.8929H582.35C581.029 82.8929 580.148 82.4526 580.148 81.5719V81.1316C580.148 79.1501 584.331 78.9299 584.331 75.0769V41.7215C584.331 37.3181 579.928 37.208 579.928 35.2265V34.8963C579.928 34.1257 580.478 33.6854 581.579 33.245L590.166 29.282C592.257 28.1811 593.358 29.282 593.358 30.9332V38.7492C596.55 32.8047 602.605 28.8417 609.65 28.8417C617.797 28.8417 624.952 33.1349 628.475 40.9509C631.227 33.3551 638.162 28.8417 646.088 28.8417C657.317 28.8417 665.793 35.6669 666.894 53.8307L668.105 74.9669Z" fill="#6C3A0C"/>
<path d="M562.077 19.4846C557.563 19.4846 554.701 16.7325 554.701 12.6594C554.701 8.58631 557.563 5.72412 562.077 5.72412C566.37 5.72412 569.232 8.58631 569.232 12.6594C569.232 16.7325 566.37 19.4846 562.077 19.4846ZM555.692 82.7829C554.371 82.7829 553.6 82.2325 553.6 81.3518V80.9115C553.6 78.8199 557.563 78.8199 557.563 74.967V42.1619C557.563 37.8687 553.6 36.988 553.6 35.3367V35.1166C553.6 34.346 554.261 34.0157 555.251 33.4653L563.728 29.2821C566.04 28.1813 567.14 29.2821 567.14 30.8233V74.967C567.14 78.8199 571.544 78.8199 571.544 80.9115V81.3518C571.544 82.2325 570.553 82.7829 569.232 82.7829H555.692Z" fill="#6C3A0C"/>
<path d="M542.111 74.8568C542.441 78.8198 546.074 78.9299 546.074 81.0215V81.4618C546.074 82.3425 545.193 82.7828 543.872 82.7828H530.662C529.341 82.7828 528.461 82.3425 528.461 81.4618V81.0215C528.461 78.9299 532.644 78.8198 532.424 74.9669L531.323 52.5097C530.772 39.5198 525.378 33.1349 517.782 33.1349C509.636 33.1349 504.022 39.6299 504.022 48.3265V75.077C504.022 78.9299 508.425 78.8198 508.425 81.0215V81.3517C508.425 82.2324 507.435 82.7828 506.114 82.7828H492.353C491.032 82.7828 490.261 82.2324 490.261 81.3517V81.0215C490.261 78.8198 494.335 78.9299 494.335 75.077V12.8795C494.335 8.5862 490.151 8.36603 490.151 6.60469V6.27443C490.151 5.39377 490.702 4.84335 491.693 4.40301L500.719 0.439984C502.701 -0.550773 503.912 0.219812 503.912 1.87108L503.692 37.5383C507.104 32.2543 513.049 28.8417 520.094 28.8417C530.882 28.8417 539.909 36.1072 540.9 52.7299L542.111 74.8568Z" fill="#6C3A0C"/>
<path d="M484.629 29.9424C485.62 29.9424 486.17 30.3827 486.17 31.2634V31.5936C486.17 33.6852 482.758 33.4651 481.217 37.7583L465.805 80.581C465.254 82.1222 464.594 82.7827 463.053 82.7827H460.961C459.42 82.7827 458.429 82.0121 457.989 80.581L445.549 41.6113L433 80.581C432.559 82.0121 431.679 82.7827 430.248 82.7827H428.817C427.165 82.7827 426.395 82.0121 425.844 80.581L408.891 37.7583C407.35 33.5752 404.598 33.5752 404.598 31.5936V31.2634C404.598 30.3827 405.259 29.9424 406.249 29.9424H420.12C421.111 29.9424 421.661 30.4928 421.661 31.2634V31.5936C421.661 33.5752 417.038 33.355 418.579 37.8684L431.128 72.8752L444.118 31.9239C444.449 30.713 444.889 30.1625 445.99 30.1625L449.623 30.0525C450.833 30.0525 451.164 30.713 451.494 31.8138L464.154 73.3155L476.373 38.5289C478.024 33.5752 472.41 33.6852 472.41 31.5936V31.2634C472.41 30.4928 473.181 29.9424 474.061 29.9424H484.629Z" fill="#6C3A0C"/>
<path d="M570.423 119.749C473.301 153.657 389.791 102.897 360.176 73.2793L366.246 67.1514C444.827 136.601 538.785 124.345 575.941 109.536L570.423 119.749Z" fill="#FF9B26"/>
</g>
<defs>
<clipPath id="clip0_164_12">
<rect width="782" height="131" fill="white"/>
</clipPath>
</defs>
</svg>
